# xmcd
#
# Track frame offsets:
#	150
#	18934
#	41379
#	53679
#	75334
#	90051
#	111036
#	129790
#	141185
#	160474
#	177225
#
# Disc length: 2654 seconds
#
# Revision: 0
# Processed by: cddbd v1.5.2PL0 Copyright (c) Steve Scherf et al.
# Submitted via: audiograbber 1.83.01
#
DISCID=730a5c0b
DTITLE=Barrelhouse - Feels Like Home
DYEAR=2013
DGENRE=
TTITLE0=Feels Like Home
TTITLE1=You Never Listen
TTITLE2=The Cadillac
TTITLE3=D ay At The Beach
TTITLE4=Bridge To Cross
TTITLE5=Eventually You´ll Jump
TTITLE6=Nowhere In Sigt
TTITLE7=Maine In October
TTITLE8=Business As Usual
TTITLE9=The Only One
TTITLE10=Slappy
EXTD=
EXTT0=
EXTT1=
EXTT2=
EXTT3=
EXTT4=
EXTT5=
EXTT6=
EXTT7=
EXTT8=
EXTT9=
EXTT10=
PLAYORDER=
